<?xml version="1.0" standalone="no"?>
<!DOCTYPE svg PUBLIC "-//W3C//DTD SVG 20010904//EN"
 "http://www.w3.org/TR/2001/REC-SVG-20010904/DTD/svg10.dtd">
<svg version="1.0" xmlns="http://www.w3.org/2000/svg"
 width="2048.000000pt" height="1536.000000pt" viewBox="0 0 2048.000000 1536.000000"
 preserveAspectRatio="xMidYMid meet">
<metadata>
Created by potrace 1.15, written by Peter Selinger 2001-2017
</metadata>
<g transform="translate(0.000000,1536.000000) scale(0.100000,-0.100000)"
fill="#000000" stroke="none">
<path d="M3720 14400 c-30 -16 -290 -146 -577 -289 -648 -321 -1025 -525
-1353 -730 -218 -136 -402 -277 -453 -347 -82 -115 -81 -112 -81 -214 -1 -87
1 -99 28 -143 56 -94 149 -147 257 -147 116 0 202 56 268 175 44 80 305 338
469 465 131 101 282 209 294 210 4 0 -2 -25 -13 -57 -35 -104 -27 -144 75
-343 35 -69 113 -228 174 -355 118 -249 278 -543 321 -588 44 -48 90 -66 162
-63 91 3 140 38 179 124 35 76 26 126 -45 252 -66 117 -189 487 -275 828 -42
167 -55 199 -108 254 -54 56 -124 89 -196 91 -41 2 -50 4 -37 13 66 43 297
173 660 370 233 127 439 245 457 263 43 40 59 97 44 152 -28 104 -139 139
-250 79z"/>
<path d="M10215 14191 c-114 -31 -205 -156 -205 -282 0 -93 28 -143 161 -279
274 -281 612 -767 813 -1168 95 -190 117 -262 126 -415 7 -117 10 -130 35
-163 37 -48 85 -67 154 -62 47 4 59 10 87 41 52 57 58 96 39 271 -9 83 -22
176 -30 206 -8 30 -13 55 -12 57 2 1 19 -8 38 -21 48 -32 312 -151 450 -202
219 -81 405 -128 722 -184 227 -39 270 -40 321 -6 37 23 59 73 60 131 0 60
-26 104 -77 129 -29 13 -313 84 -527 131 -206 45 -496 175 -666 300 l-41 30
211 105 c223 111 386 209 449 269 21 20 51 59 65 86 23 43 27 62 27 135 0 75
-3 91 -29 135 -53 94 -147 145 -265 145 -85 0 -145 -28 -221 -105 -134 -135
-308 -262 -493 -360 -107 -57 -136 -80 -203 -158 l-41 -48 -28 63 c-60 136
-297 609 -361 723 -91 162 -230 384 -262 418 -46 49 -118 80 -197 83 -38 2
-83 -1 -100 -5z"/>
<path d="M4400 13860 c-93 -13 -181 -83 -220 -175 -30 -69 -28 -191 5 -420 48
-330 106 -603 208 -985 30 -113 61 -233 67 -268 10 -50 20 -70 51 -102 91 -93
237 -71 293 45 21 46 19 88 -14 275 -19 105 -21 147 -16 260 5 123 30 267 54
317 5 10 20 40 33 67 66 136 235 230 328 181 108 -55 277 -351 467 -815 68
-167 105 -245 127 -268 37 -39 183 -110 243 -119 103 -14 188 86 164 191 -12
52 -52 91 -124 119 l-60 23 -97 231 c-183 440 -314 674 -455 816 -160 160
-344 189 -559 86 -44 -21 -104 -59 -133 -85 -29 -25 -55 -44 -58 -41 -5 5 8
177 25 335 8 71 7 90 -9 137 -25 71 -63 119 -125 154 -44 25 -64 32 -135 45
-8 2 -35 0 -60 -4z"/>
<path d="M13810 13257 c-101 -28 -175 -102 -203 -203 -22 -79 -21 -111 4 -178
25 -64 74 -119 224 -247 55 -48 224 -193 375 -324 151 -130 288 -244 304 -252
16 -8 55 -17 86 -20 60 -6 102 9 148 50 12 11 22 18 22 14 0 -6 -91 -215 -149
-339 -74 -161 -96 -208 -136 -298 -24 -52 -63 -135 -87 -184 l-45 -90 -554 -3
c-585 -2 -1339 -11 -1649 -19 -164 -4 -1649 -4 -6740 -1 -778 1 -1743 -2
-2145 -6 -401 -4 -1036 -10 -1410 -13 -374 -4 -709 -8 -745 -9 -36 -2 -285 -6
-555 -9 -269 -4 -505 -9 -522 -12 l-33 -5 0 -136 0 -136 452 6 c249 4 586 12
748 18 216 8 314 8 365 0 51 -8 96 -9 165 -1 52 6 100 11 105 10 44 -4 280
-11 320 -9 86 4 436 4 525 1 96 -4 473 12 537 23 24 4 62 2 90 -4 26 -7 93
-12 148 -12 150 -1 455 10 465 16 4 3 237 4 517 4 279 -1 533 -1 563 -1 438 4
1562 14 1615 14 92 -1 445 0 538 0 39 0 95 0 122 -1 58 0 31 0 660 2 270 1
546 1 615 0 389 -5 2332 3 2788 13 262 6 362 4 426 -6 75 -12 93 -11 155 4 39
10 76 14 81 11 6 -4 304 -6 663 -4 1144 5 1570 2 1564 -14 -45 -105 -165 -377
-236 -537 -107 -238 -118 -288 -79 -355 35 -59 89 -87 163 -83 66 4 99 22 132
73 10 16 70 138 133 270 63 132 160 330 216 440 l101 200 919 0 c505 0 1268
-3 1694 -8 991 -9 1717 -16 2548 -23 l662 -5 0 135 0 136 -417 2 c-676 2
-1015 5 -1593 12 -669 7 -1859 17 -2635 20 -319 2 -682 4 -808 5 l-227 1 65
128 c36 70 80 154 99 187 18 33 57 105 86 160 76 144 207 374 283 495 37 58
81 130 98 160 18 30 44 73 58 95 33 51 61 139 61 190 0 22 -8 62 -19 89 -18
48 -78 135 -94 136 -5 0 -21 8 -35 19 -15 10 -53 24 -84 30 -164 34 -295 -52
-347 -229 -12 -41 -41 -127 -63 -190 -22 -63 -52 -149 -66 -190 l-26 -75 -8
58 c-7 55 -56 147 -77 147 -9 0 -329 375 -440 514 -35 45 -82 108 -104 141
-71 106 -113 150 -169 177 -65 32 -148 41 -208 25z"/>
<path d="M7129 13187 c-204 -69 -372 -320 -473 -711 -29 -109 -31 -151 -14
-225 21 -93 145 -191 240 -191 60 0 159 25 216 54 63 32 140 92 230 180 l72
71 49 -18 c27 -9 54 -17 61 -17 6 0 29 -15 50 -33 22 -18 89 -62 150 -96 84
-48 122 -65 158 -68 97 -7 166 64 159 164 -5 70 -23 94 -123 155 -73 44 -84
55 -79 72 4 12 9 49 12 84 7 77 -10 125 -81 237 -140 222 -250 319 -396 350
-96 20 -152 18 -231 -8z"/>
<path d="M18185 13201 c-119 -21 -211 -123 -228 -256 -7 -51 29 -409 58 -575
48 -273 134 -436 268 -504 36 -18 84 -31 143 -38 l90 -11 75 36 c202 97 488
437 732 870 76 134 92 180 83 231 -19 102 -154 157 -243 99 -13 -9 -67 -79
-120 -157 -53 -77 -137 -193 -188 -256 -129 -162 -325 -355 -338 -333 -12 20
-17 260 -7 363 21 222 23 295 10 336 -29 92 -107 164 -204 190 -55 15 -69 15
-131 5z"/>
<path d="M16831 13040 c-148 -35 -296 -158 -425 -352 -42 -64 -76 -119 -76
-121 0 -3 -15 -38 -34 -79 -33 -72 -41 -95 -70 -193 -68 -228 -59 -416 24
-517 39 -47 119 -85 197 -94 218 -23 483 161 603 419 40 85 59 162 72 294 10
93 15 114 30 119 26 8 84 82 107 138 66 152 -25 332 -194 383 -44 14 -181 15
-234 3z"/>
<path d="M8455 12973 c-102 -37 -169 -115 -190 -223 -16 -76 -8 -110 100 -445
51 -159 96 -306 100 -325 18 -84 76 -154 158 -189 116 -50 226 -7 318 123 20
28 89 159 152 291 64 132 127 253 140 269 l22 29 45 -20 c70 -32 121 -83 221
-221 133 -183 147 -197 218 -213 53 -12 90 0 132 42 42 42 60 111 41 161 -20
54 -212 344 -273 413 -77 87 -180 166 -256 196 -87 35 -217 33 -293 -4 -66
-32 -125 -88 -188 -176 l-47 -65 -11 70 c-18 116 -31 149 -82 202 -82 88 -204
122 -307 85z"/>
<path d="M8315 10099 c-248 -22 -271 -26 -295 -51 -15 -16 -20 -36 -20 -73 0
-44 -5 -59 -36 -99 -20 -26 -47 -75 -60 -109 -29 -74 -52 -100 -104 -117 -46
-15 -57 -26 -70 -69 -7 -26 -5 -33 12 -42 18 -10 18 -12 4 -28 -12 -13 -14
-27 -9 -52 9 -50 31 -77 77 -101 53 -26 84 -55 101 -93 24 -55 40 -69 91 -74
45 -6 49 -8 56 -41 4 -19 10 -94 14 -166 6 -128 6 -132 -15 -139 -12 -4 -30 0
-43 9 -28 20 -87 21 -113 3 -32 -22 -78 -27 -105 -12 -66 37 -314 5 -425 -55
-60 -32 -99 -84 -90 -120 3 -14 10 -43 14 -65 15 -79 52 -138 101 -163 42 -22
54 -23 170 -19 139 6 228 26 276 62 52 40 69 34 84 -30 8 -35 18 -55 28 -55
19 0 8 -50 -15 -67 -32 -25 -107 -16 -163 19 -46 29 -58 32 -129 31 -43 0 -95
-6 -117 -13 -64 -21 -129 -70 -165 -124 -33 -49 -34 -54 -32 -141 1 -106 15
-144 72 -203 54 -55 113 -84 186 -90 106 -8 211 35 289 117 26 27 37 31 80 31
28 0 56 -4 61 -8 12 -8 35 -112 35 -156 0 -15 5 -37 12 -49 11 -22 24 -114 35
-257 4 -47 8 -68 13 -55 7 19 7 19 19 -4 15 -27 24 -231 11 -231 -5 0 -11 12
-13 28 -3 19 -4 14 -6 -15 0 -24 3 -43 9 -43 5 0 11 -42 13 -92 l3 -93 2 98
c1 64 6 96 12 92 6 -4 10 -23 10 -43 -1 -41 4 -81 25 -225 8 -53 17 -128 20
-165 19 -264 26 -332 35 -372 13 -57 26 -151 41 -310 14 -150 24 -240 38 -340
6 -41 11 -88 12 -105 1 -16 5 -52 10 -80 5 -27 13 -115 19 -195 9 -136 29
-235 43 -212 4 5 2 81 -3 168 -6 88 -15 236 -21 329 -20 341 -29 493 -39 615
-5 69 -14 211 -19 315 -13 246 -30 451 -72 885 -11 113 -24 258 -29 323 -5 65
-12 123 -16 128 -3 5 -2 39 1 75 11 95 29 77 37 -37 3 -52 11 -130 17 -174 7
-44 16 -129 22 -190 5 -60 14 -148 19 -195 5 -47 13 -137 19 -200 6 -63 16
-162 21 -220 6 -58 15 -172 21 -255 21 -312 29 -434 39 -550 5 -66 14 -181 19
-255 16 -212 43 -548 61 -750 5 -63 14 -178 20 -255 5 -77 14 -167 20 -200 5
-33 10 -87 10 -120 1 -56 17 -174 38 -272 5 -23 6 -65 1 -93 -9 -55 -4 -182
11 -319 5 -46 8 -87 5 -91 -2 -3 0 -35 5 -71 5 -35 11 -107 15 -159 19 -286
26 -411 40 -665 8 -154 17 -291 19 -305 5 -24 15 -188 21 -340 2 -41 8 -97 15
-125 12 -53 36 -311 39 -427 1 -12 9 -18 25 -18 32 0 57 10 51 21 -3 4 2 12
12 17 19 10 112 27 126 23 17 -3 93 21 109 36 15 13 15 18 3 37 -30 45 -57
158 -50 201 16 83 9 236 -26 555 -6 47 -13 128 -17 180 -5 52 -11 102 -15 110
-3 8 -8 42 -11 75 -3 33 -13 110 -21 170 -16 111 -25 191 -44 385 -13 135 -40
351 -46 367 -2 7 -14 79 -25 159 -15 108 -26 154 -41 175 -13 19 -18 36 -14
50 4 13 1 27 -10 39 -16 18 -16 20 4 37 29 24 29 122 1 188 -17 40 -18 50 -7
71 9 18 11 45 6 92 -4 37 -12 132 -19 212 -6 80 -18 199 -25 265 -8 66 -19
179 -25 250 -6 72 -15 168 -21 215 -5 47 -14 132 -19 190 -5 58 -14 152 -20
210 -6 58 -15 152 -20 210 -9 104 -22 226 -40 390 -5 47 -14 132 -19 190 -6
58 -15 150 -21 205 -6 55 -15 145 -20 200 -12 134 -27 274 -40 365 -19 137
-42 364 -42 415 0 68 1 75 11 75 12 0 21 -40 31 -130 4 -41 13 -109 20 -150 6
-41 16 -115 21 -165 6 -49 15 -128 20 -175 5 -47 14 -128 20 -180 5 -52 14
-133 19 -180 5 -47 14 -128 20 -180 5 -52 14 -137 20 -187 5 -51 15 -135 20
-185 6 -51 15 -133 20 -183 5 -49 14 -130 20 -180 6 -49 15 -135 20 -190 14
-153 32 -321 59 -560 43 -384 49 -437 71 -660 7 -60 17 -123 23 -140 6 -16 13
-80 16 -142 5 -100 8 -114 29 -133 21 -20 22 -23 7 -40 -12 -14 -13 -23 -5
-45 6 -15 8 -42 5 -59 -6 -28 19 -350 45 -576 12 -113 25 -241 50 -495 58
-598 109 -1016 135 -1110 8 -27 16 -88 17 -135 l3 -85 59 1 c79 2 238 36 263
56 10 8 9 15 -1 31 -14 23 -25 81 -31 171 -2 28 -9 85 -15 126 -6 41 -17 129
-25 195 -8 66 -20 152 -26 190 -6 39 -14 97 -18 130 -4 33 -13 73 -19 88 -14
33 -16 106 -3 126 14 21 27 -12 40 -99 6 -41 16 -106 22 -145 15 -101 26 -167
49 -285 11 -58 22 -119 25 -137 3 -18 12 -63 20 -100 8 -37 24 -115 36 -173
11 -58 24 -109 29 -113 8 -9 192 -11 245 -3 35 5 85 23 85 31 0 2 -9 39 -21
80 -11 41 -24 96 -28 122 -5 27 -21 91 -35 143 -15 52 -33 127 -40 165 -8 39
-25 122 -39 185 -13 63 -30 147 -37 185 -6 39 -18 97 -26 130 -7 33 -22 101
-33 150 -11 50 -29 128 -40 175 -40 172 -61 276 -61 297 0 12 -4 24 -9 27 -5
3 -12 25 -15 48 -16 105 -19 118 -27 118 -5 0 -9 25 -9 55 0 30 -4 55 -10 55
-5 0 -10 11 -10 25 0 22 -9 69 -46 230 -3 17 -14 73 -24 125 -10 52 -30 158
-44 235 -15 77 -31 154 -36 170 -5 17 -19 77 -31 135 -12 58 -25 125 -31 150
-20 98 -28 137 -37 190 -5 30 -15 80 -21 110 -7 30 -16 73 -21 95 -4 22 -11
54 -14 70 -18 80 -39 185 -46 225 -4 25 -13 68 -19 95 -6 28 -15 73 -20 100
-13 69 -76 364 -100 465 -28 118 -44 189 -65 297 -13 67 -29 132 -36 145 -7
13 -13 46 -14 74 -1 28 -7 73 -14 100 -15 64 -42 201 -48 239 -3 17 -11 44
-18 60 -7 17 -16 55 -19 85 -4 30 -12 78 -17 105 -16 76 -26 124 -39 190 -7
33 -21 83 -33 110 -30 73 -46 172 -38 232 5 38 4 56 -6 66 -18 18 -6 142 12
127 7 -6 15 -25 19 -43 16 -93 26 -137 41 -187 9 -30 21 -80 25 -110 5 -30 18
-102 30 -160 36 -173 65 -312 118 -570 28 -135 65 -310 82 -390 32 -148 122
-581 141 -680 6 -30 15 -75 20 -100 14 -62 26 -126 39 -187 5 -29 14 -74 20
-100 5 -27 14 -72 20 -100 15 -79 28 -142 40 -198 5 -27 15 -75 20 -105 11
-58 22 -113 40 -195 5 -27 14 -72 20 -100 5 -27 14 -72 20 -100 5 -27 14 -72
20 -100 5 -27 13 -70 19 -95 5 -25 14 -72 21 -105 6 -33 16 -82 22 -110 20
-100 26 -133 62 -315 20 -102 41 -203 46 -225 5 -22 48 -236 95 -475 47 -239
90 -452 96 -473 11 -41 60 -257 114 -497 19 -85 39 -171 44 -190 15 -53 42
-160 52 -208 10 -52 26 -82 42 -82 22 -1 -35 -40 -58 -40 -30 0 -107 -33 -123
-53 -7 -8 -15 -28 -16 -43 -3 -26 -26 -49 -26 -26 0 5 -10 12 -22 16 -18 5
-20 8 -9 15 51 33 -207 21 -314 -15 -38 -12 -99 -25 -135 -29 -172 -15 -220
-23 -261 -42 -51 -24 -105 -36 -169 -37 -25 -1 -51 -5 -58 -10 -9 -5 -24 -3
-38 5 -21 11 -26 10 -38 -6 -8 -12 -19 -16 -30 -12 -22 8 -15 33 8 31 9 -1 16
6 16 16 0 9 9 25 20 35 23 21 26 45 8 64 -9 8 -13 43 -13 101 0 71 -3 92 -16
102 -14 10 -16 25 -12 71 3 31 9 57 13 57 11 0 3 163 -19 405 -6 66 -14 161
-17 210 -4 50 -13 105 -21 123 -12 29 -18 33 -39 28 -46 -12 -61 0 -70 57 -4
28 -7 59 -7 67 1 8 -7 84 -18 170 -11 85 -24 205 -30 265 -5 61 -27 290 -49
510 -21 220 -44 463 -50 540 -6 77 -15 190 -21 250 -6 61 -15 162 -20 225 -5
63 -13 160 -19 215 -5 55 -12 143 -15 195 -3 52 -9 113 -12 135 -3 22 -5 62
-4 89 l1 49 -57 -6 c-116 -11 -350 -102 -473 -183 -167 -110 -328 -263 -411
-389 -111 -170 -169 -304 -169 -391 0 -56 -19 -71 -54 -43 -24 19 -35 20 -114
15 -48 -4 -139 -3 -201 3 -91 7 -133 6 -199 -5 -48 -9 -127 -14 -185 -12 -56
2 -165 -1 -242 -6 -77 -5 -273 -10 -435 -12 -162 -1 -405 -7 -540 -12 -135 -5
-272 -6 -305 -2 -32 3 -73 5 -90 2 -16 -2 -142 -6 -280 -8 -137 -2 -259 -6
-270 -10 -11 -3 -407 -8 -880 -10 -473 -3 -1056 -9 -1295 -15 -239 -5 -588
-12 -775 -14 -187 -2 -385 -8 -441 -13 -55 -5 -134 -5 -175 0 -41 4 -96 4
-124 -1 -29 -5 -121 -6 -220 -1 -93 5 -207 9 -252 10 l-83 0 0 -89 0 -89 563
0 c309 0 639 0 732 -1 94 0 445 2 780 6 336 4 637 6 670 6 33 -1 138 -2 234
-2 100 -1 187 -6 205 -12 23 -8 45 -8 86 1 99 20 293 32 524 30 71 0 144 4
161 10 23 8 40 7 61 -1 42 -16 521 -11 674 7 70 8 1027 19 1180 13 14 0 48 3
75 8 28 5 84 5 125 1 55 -6 97 -4 160 8 65 12 146 15 345 15 327 -1 470 6 486
25 15 18 33 18 49 -1 11 -13 11 -27 1 -73 -7 -31 -19 -67 -27 -79 -21 -33 -22
-330 -1 -453 9 -52 19 -115 22 -140 17 -116 59 -259 133 -445 71 -181 84 -249
89 -465 5 -208 11 -235 58 -266 34 -22 68 -11 102 33 37 49 109 93 150 93 75
0 150 -69 168 -155 3 -16 15 -68 25 -115 24 -110 38 -206 50 -356 5 -67 14
-134 20 -148 7 -19 7 -34 -1 -48 -6 -12 -9 -39 -6 -63 4 -23 2 -46 -3 -51 -5
-5 -12 -54 -15 -109 -3 -55 -11 -120 -17 -145 -16 -70 -79 -189 -123 -235 -63
-66 -96 -80 -196 -80 -81 0 -90 2 -173 44 -74 36 -92 41 -112 33 -28 -13 -47
-75 -46 -150 l1 -52 -33 0 c-39 0 -61 -22 -70 -70 -13 -63 -6 -105 28 -191 38
-93 62 -230 58 -327 -2 -43 2 -69 13 -85 23 -33 18 -54 -15 -66 -32 -11 -37
-29 -17 -62 10 -17 9 -23 -1 -26 -17 -7 -41 -55 -51 -106 -5 -23 -12 -50 -16
-59 -7 -17 111 -18 2384 -18 2271 0 2391 1 2391 18 -2 121 -106 491 -190 677
-15 33 -38 85 -51 115 -13 30 -40 83 -61 118 -21 34 -47 82 -58 105 -51 111
-71 294 -47 433 15 90 11 107 -30 159 -36 45 -70 46 -117 5 -19 -17 -37 -27
-40 -22 -3 5 -5 29 -4 54 1 47 -12 79 -45 116 -33 36 -68 29 -124 -26 -71 -70
-141 -102 -220 -102 -91 0 -127 22 -173 104 -67 121 -90 178 -164 401 -42 125
-49 155 -87 389 -26 160 -30 209 -27 320 4 148 19 196 71 223 42 21 108 11
167 -27 61 -39 100 -39 134 0 36 44 41 85 17 155 -56 168 -66 337 -39 640 15
176 18 260 12 355 -4 69 -8 163 -8 210 l-1 84 60 3 c33 1 87 5 120 9 33 4 87
7 120 6 119 -4 156 -4 545 1 217 2 478 7 580 11 102 3 367 8 590 11 363 4 527
7 1163 19 159 4 180 6 193 22 18 23 69 121 78 150 6 21 4 21 -38 13 -121 -22
-321 -29 -1171 -36 -1056 -9 -1055 -9 -1275 -5 -151 4 -406 -2 -605 -12 -44
-2 -154 -6 -245 -8 l-164 -3 -22 55 c-12 30 -32 82 -44 115 -13 33 -33 83 -45
110 -12 28 -27 64 -34 82 -7 17 -23 41 -37 54 -13 12 -24 30 -24 40 0 10 -14
28 -31 41 -54 40 -159 151 -152 161 3 6 1 7 -5 4 -12 -8 -62 47 -62 68 0 17
-50 65 -67 65 -6 0 -14 8 -18 18 -3 9 -25 29 -48 44 -65 41 -263 138 -281 138
-9 0 -34 9 -55 19 -92 47 -195 64 -391 65 l-185 1 -11 25 c-7 14 -26 122 -43
240 -18 118 -38 256 -46 305 -71 460 -119 776 -130 855 -14 108 -27 194 -60
395 -13 77 -26 165 -30 195 -13 114 -35 256 -45 290 -16 57 -13 67 25 80 60
20 70 46 56 146 -6 46 -9 89 -6 94 9 14 44 12 95 -6 127 -45 458 39 475 120 9
45 20 163 17 191 -1 17 -12 37 -25 47 -24 19 -24 19 18 41 43 22 85 66 106
112 23 50 26 161 5 191 -8 11 -23 41 -32 65 -38 98 -124 149 -252 149 -107 0
-179 -28 -243 -94 -36 -37 -52 -41 -140 -30 -41 5 -50 3 -80 -24 -35 -30 -39
-31 -209 -49 -64 -6 -80 5 -86 60 -2 17 -6 43 -9 56 -8 30 8 41 57 41 39 0 88
17 100 35 4 5 5 33 1 62 -7 65 10 95 64 111 64 19 79 81 48 199 -21 79 -32 87
-116 89 -75 2 -109 21 -109 62 0 11 -7 36 -15 55 -12 29 -23 38 -55 47 -42 11
-70 41 -70 76 0 57 -51 118 -93 112 -7 -1 -48 -5 -92 -9z m-255 -440 c0 -21
-4 -39 -9 -39 -5 0 -12 -19 -16 -42 l-7 -43 -10 34 c-5 18 -11 31 -14 29 -2
-3 -6 -36 -9 -75 -2 -38 -5 -73 -6 -78 -1 -6 1 -18 5 -27 5 -10 0 -28 -11 -45
-23 -37 -35 -44 -50 -31 -18 15 -16 32 6 52 12 11 20 37 24 74 4 31 8 68 10
82 3 14 2 18 0 10 -4 -15 -65 -60 -82 -60 -16 0 -18 22 -5 59 8 23 9 42 3 53
-12 22 5 32 21 13 18 -22 38 -18 65 13 24 26 24 26 25 5 0 -13 4 -23 9 -23 13
0 24 37 16 50 -8 13 14 42 26 34 5 -3 9 -23 9 -45z m480 -1612 c0 -18 4 -37 9
-42 5 -6 12 -39 14 -75 5 -60 10 -94 37 -225 6 -27 14 -84 19 -125 5 -41 16
-118 25 -170 16 -93 23 -141 46 -290 6 -41 15 -93 20 -115 5 -22 14 -69 20
-105 6 -36 15 -87 20 -115 9 -43 24 -136 70 -425 4 -30 18 -116 30 -190 12
-74 26 -160 30 -190 33 -209 92 -544 114 -640 13 -63 32 -178 41 -255 9 -77
20 -167 26 -200 5 -33 14 -87 19 -120 5 -33 14 -89 20 -125 6 -36 15 -92 20
-125 5 -33 14 -89 20 -125 6 -36 15 -92 20 -125 5 -33 14 -89 20 -125 6 -36
15 -94 20 -130 5 -36 14 -94 20 -130 11 -65 20 -120 40 -255 21 -136 29 -191
39 -265 6 -41 15 -102 21 -135 31 -187 36 -331 10 -285 -8 15 -34 118 -45 180
-25 142 -39 231 -53 325 -5 34 -12 70 -15 80 -4 11 -15 79 -26 150 -11 72 -29
184 -41 250 -27 151 -47 270 -69 420 -6 39 -15 97 -21 130 -6 33 -15 89 -20
125 -5 36 -13 90 -19 120 -6 30 -21 121 -35 202 -13 80 -29 155 -35 166 -33
62 -44 122 -47 247 -1 72 -9 175 -18 230 -30 180 -35 209 -46 265 -6 30 -15
93 -20 140 -5 47 -14 117 -20 155 -6 39 -15 102 -20 140 -5 39 -15 99 -21 135
-24 141 -40 242 -58 365 -13 88 -28 176 -42 240 -6 28 -14 77 -19 110 -4 33
-13 89 -19 125 -6 36 -15 97 -21 135 -9 67 -17 112 -40 255 -22 134 -50 418
-43 436 10 26 23 15 23 -19z m335 -6487 c3 -5 12 -7 19 -4 8 3 17 1 21 -5 3
-6 20 -11 36 -11 21 0 40 -10 61 -30 16 -16 25 -30 19 -30 -6 0 -21 -11 -33
-25 -25 -26 -111 -57 -134 -48 -22 8 -11 28 18 31 20 2 27 10 32 34 7 33 0 51
-17 45 -14 -4 -58 33 -51 45 7 11 21 10 29 -2z"/>
<path d="M15685 7476 c-16 -7 -47 -35 -69 -60 -21 -26 -49 -51 -61 -56 -25 -9
-29 -20 -59 -155 -29 -124 -55 -212 -75 -247 -10 -18 -22 -53 -26 -78 -5 -29
-17 -56 -36 -75 -25 -26 -35 -55 -38 -110 -1 -6 -16 -16 -33 -24 -50 -21 -63
-36 -63 -73 0 -27 4 -34 23 -36 27 -4 29 -19 2 -27 -12 -4 -20 -15 -20 -27 0
-11 -8 -27 -17 -34 -17 -12 -17 -14 -2 -29 9 -9 47 -25 85 -35 102 -28 252
-66 314 -80 73 -16 152 -41 167 -52 13 -10 -9 -75 -95 -283 -27 -66 -53 -131
-57 -145 -4 -14 -13 -38 -20 -55 -43 -100 -158 -372 -185 -438 -22 -54 -39
-81 -55 -87 -18 -7 -23 -20 -32 -82 -7 -51 -28 -113 -68 -203 -31 -71 -63
-149 -72 -172 -23 -67 -27 -68 -192 -63 -145 5 -186 4 -488 -2 -179 -3 -172 0
-218 -96 -35 -73 -32 -87 15 -84 3 0 100 3 215 7 116 4 280 10 366 14 86 3
163 5 173 3 22 -5 20 -34 -4 -84 -11 -23 -20 -48 -20 -55 0 -7 -4 -21 -9 -31
-5 -9 -29 -64 -52 -122 -24 -58 -46 -109 -51 -115 -4 -5 -8 -15 -8 -22 0 -7
-11 -36 -24 -65 -14 -30 -34 -78 -46 -107 -11 -30 -29 -73 -39 -95 -11 -23
-56 -129 -101 -236 -45 -107 -122 -283 -170 -390 -120 -266 -198 -443 -260
-585 -129 -297 -205 -458 -231 -492 -16 -19 -29 -44 -29 -54 0 -10 -14 -49
-31 -86 -17 -38 -46 -102 -64 -143 -18 -41 -76 -165 -129 -275 -54 -110 -102
-211 -109 -225 -17 -39 -59 -80 -80 -80 -20 0 -81 33 -171 93 -71 48 -97 49
-141 7 -27 -26 -36 -30 -53 -21 -26 14 -52 71 -52 113 0 29 -8 41 -50 77 -65
55 -231 165 -298 198 -65 32 -62 34 -133 -102 -29 -55 -70 -127 -91 -159 -21
-33 -38 -63 -38 -68 0 -5 -12 -27 -27 -51 -15 -23 -64 -115 -109 -204 -46 -88
-98 -182 -117 -207 -20 -25 -38 -58 -42 -75 -3 -16 -15 -37 -26 -47 -10 -9
-19 -23 -19 -31 0 -7 -13 -27 -29 -44 -18 -19 -32 -46 -36 -72 -4 -23 -16 -59
-28 -79 -16 -29 -19 -48 -14 -91 5 -53 5 -54 -43 -106 -83 -91 -76 -135 34
-196 34 -19 91 -57 125 -85 35 -28 80 -60 100 -71 20 -11 64 -40 99 -64 l63
-45 392 0 392 0 41 78 c135 258 257 488 264 497 4 6 47 87 95 180 48 94 129
249 180 345 136 258 465 921 465 936 0 3 21 49 46 102 25 53 68 149 96 212 27
63 65 148 84 188 19 41 34 75 34 78 0 2 11 27 24 56 77 172 236 548 236 559 0
5 18 48 40 95 22 47 40 89 40 93 0 5 6 21 14 37 8 16 21 45 29 64 8 19 24 56
36 82 11 26 21 52 21 58 0 6 4 18 9 28 19 36 65 142 111 257 75 186 246 580
272 627 l23 42 65 -3 c36 -1 96 -6 134 -11 40 -5 92 -5 120 0 28 5 193 14 366
19 173 6 392 14 485 17 94 4 262 8 375 9 224 3 467 10 890 26 151 5 419 14
595 19 176 6 421 15 545 20 124 6 297 12 385 15 88 3 197 7 242 10 46 2 199 6
340 10 142 3 309 8 371 11 l112 6 0 59 0 59 -47 -5 c-27 -3 -180 -10 -341 -15
-161 -5 -297 -12 -302 -15 -8 -5 -710 -19 -1495 -30 -88 -1 -308 -8 -490 -14
-181 -7 -609 -14 -950 -16 -341 -3 -658 -7 -705 -9 -47 -3 -161 -6 -255 -6
-100 -1 -201 -7 -245 -16 -41 -8 -90 -14 -108 -14 -33 0 -33 1 -27 33 4 17 10
37 14 42 4 6 13 28 20 50 35 104 90 214 112 226 13 7 18 20 16 48 0 22 4 50
10 63 6 13 39 95 73 183 34 88 68 174 75 190 8 17 37 93 65 170 28 77 65 176
82 220 82 220 198 558 198 579 0 9 4 16 9 16 5 0 11 12 14 28 3 15 11 45 17
67 22 76 23 87 10 128 -31 106 -58 140 -155 202 -16 10 -67 49 -112 87 l-81
68 -7 68 c-4 38 -1 106 5 156 11 77 10 90 -3 104 -22 21 -152 27 -192 8z"/>
</g>
</svg>
